<svg width="91" height="66" viewBox="0 0 91 66" fill="none" xmlns="http://www.w3.org/2000/svg">
<path d="M89.1166 32.4593L47.7704 0.722798C47.4727 0.493672 47.1191 0.311894 46.7299 0.187867C46.3406 0.0638404 45.9233 0 45.5019 0C45.0805 0 44.6632 0.0638404 44.2739 0.187867C43.8846 0.311894 43.531 0.493672 43.2333 0.722798L1.88713 32.4593C0.682578 33.3845 0 34.6413 0 35.9521C0 38.6739 2.88088 40.8869 6.42427 40.8869H10.7807V63.5326C10.7807 64.8974 12.2161 66 13.9929 66H39.0776V48.7285H50.3201V66H77.0109C78.7876 66 80.223 64.8974 80.223 63.5326V40.8869H84.5795C86.2859 40.8869 87.9221 40.3703 89.1267 39.4373C91.6261 37.5097 91.6261 34.3869 89.1166 32.4593Z" fill="white"/>
</svg>
